<?xml version="1.0" encoding="UTF-8" standalone="no"?>
<!-- Created with Inkscape (http://www.inkscape.org/) -->

<svg
   width="252.32188mm"
   height="84.866859mm"
   viewBox="0 0 252.32189 84.866859"
   version="1.1"
   id="svg80224"
   inkscape:version="1.1.1 (3bf5ae0d25, 2021-09-20)"
   sodipodi:docname="LOGO-BYKU.svg"
   xmlns:inkscape="http://www.inkscape.org/namespaces/inkscape"
   xmlns:sodipodi="http://sodipodi.sourceforge.net/DTD/sodipodi-0.dtd"
   xmlns="http://www.w3.org/2000/svg"
   xmlns:svg="http://www.w3.org/2000/svg">
  <sodipodi:namedview
     id="namedview80226"
     pagecolor="#ffffff"
     bordercolor="#666666"
     borderopacity="1.0"
     inkscape:pageshadow="2"
     inkscape:pageopacity="0.0"
     inkscape:pagecheckerboard="0"
     inkscape:document-units="mm"
     showgrid="false"
     fit-margin-top="0"
     fit-margin-left="0"
     fit-margin-right="0"
     fit-margin-bottom="0"
     inkscape:zoom="1"
     inkscape:cx="653.5"
     inkscape:cy="300.5"
     inkscape:window-width="1920"
     inkscape:window-height="1007"
     inkscape:window-x="0"
     inkscape:window-y="0"
     inkscape:window-maximized="1"
     inkscape:current-layer="layer1" />
  <defs
     id="defs80221">
    <rect
       x="277.46655"
       y="20.94696"
       width="1053.7234"
       height="420.91852"
       id="rect1787" />
    <rect
       x="485.27386"
       y="305.66843"
       width="594.31201"
       height="170.87466"
       id="rect1079" />
    <rect
       x="921.66388"
       y="183.43486"
       width="403.66849"
       height="262.4295"
       id="rect64704" />
  </defs>
  <g
     inkscape:label="Layer 1"
     inkscape:groupmode="layer"
     id="layer1"
     transform="translate(-24.250619,-29.695139)">
    <g
       aria-label="blumilk_"
       transform="matrix(0.28744243,0,0,0.28613523,-24.649205,-29.820158)"
       id="text1077"
       style="font-size:133.333px;line-height:1.25;white-space:pre;shape-inside:url(#rect1079);display:inline;fill:#ffffff">
      <path
         d="m 515.54003,349.25122 q 0,4.13332 -0.26667,8.13331 -0.26667,3.99999 -0.53333,6.26665 h 0.8 q 2.93332,-4.53332 7.86664,-7.59998 4.93332,-3.19999 12.79997,-3.19999 12.26664,0 19.86662,9.59997 7.59998,9.46664 7.59998,27.99993 0,18.66662 -7.73332,28.26659 -7.73331,9.59998 -20.26661,9.59998 -7.99998,0 -12.66664,-2.79999 -4.53332,-2.93333 -7.46664,-6.53332 h -1.33333 l -3.33333,7.99998 H 495.67341 V 325.65128 h 19.86662 z m 14.26663,19.46661 q -7.73332,0 -10.93331,4.79999 -3.06666,4.79999 -3.33332,14.66663 v 2.13333 q 0,10.5333 3.06666,16.26662 3.19999,5.59999 11.46663,5.59999 6.13332,0 9.73331,-5.59999 3.59999,-5.73332 3.59999,-16.39996 0,-10.66664 -3.73332,-15.99996 -3.59999,-5.46665 -9.86664,-5.46665 z"
         style="font-weight:bold;font-family:'Noto Sans';-inkscape-font-specification:'Noto Sans Bold';fill:#ffffff"
         id="path17597" />
      <path
         d="M 599.93973,426.98435 H 580.07311 V 325.65128 h 19.86662 z"
         style="font-weight:bold;font-family:'Noto Sans';-inkscape-font-specification:'Noto Sans Bold';fill:#ffffff"
         id="path17599" />
      <path
         d="m 687.5393,354.18454 v 72.79981 h -15.19997 l -2.66666,-9.33331 h -1.06666 q -3.46666,5.59999 -9.59997,8.13331 -5.99999,2.53333 -12.79997,2.53333 -11.73331,0 -18.79995,-6.26665 -7.06665,-6.39998 -7.06665,-20.39995 v -47.46654 h 19.86661 v 42.53322 q 0,7.73331 2.8,11.7333 2.79999,3.99999 8.93331,3.99999 9.06664,0 12.39996,-6.13331 3.33333,-6.26665 3.33333,-17.86663 v -34.26657 z"
         style="font-weight:bold;font-family:'Noto Sans';-inkscape-font-specification:'Noto Sans Bold';fill:#ffffff"
         id="path17601" />
      <path
         d="m 793.80563,352.85121 q 12.39997,0 18.66662,6.39998 6.39998,6.26665 6.39998,20.26661 v 47.46655 h -19.86661 v -42.53322 q 0,-15.7333 -10.93331,-15.7333 -7.86664,0 -11.19997,5.59999 -3.33332,5.59998 -3.33332,16.13329 v 36.53324 H 753.6724 v -42.53322 q 0,-15.7333 -10.93331,-15.7333 -8.26664,0 -11.46663,6.26665 -3.06666,6.13332 -3.06666,17.73329 v 34.26658 h -19.86662 v -72.79981 h 15.19996 l 2.66666,9.33331 h 1.06667 q 3.33332,-5.59999 9.06664,-8.13332 5.86665,-2.53332 12.1333,-2.53332 7.99998,0 13.59997,2.66666 5.59998,2.53332 8.53331,7.99998 h 1.73333 q 3.33332,-5.59999 9.19998,-8.13332 5.99998,-2.53332 12.26663,-2.53332 z"
         style="font-weight:bold;font-family:'Noto Sans';-inkscape-font-specification:'Noto Sans Bold';fill:#ffffff"
         id="path17603" />
      <path
         d="m 849.27196,325.65128 q 4.39999,0 7.59998,2.13332 3.19999,2 3.19999,7.59998 0,5.46666 -3.19999,7.59998 -3.19999,2.13333 -7.59998,2.13333 -4.53332,0 -7.73332,-2.13333 -3.06666,-2.13332 -3.06666,-7.59998 0,-5.59998 3.06666,-7.59998 3.2,-2.13332 7.73332,-2.13332 z m 9.86664,28.53326 v 72.79981 h -19.86662 v -72.79981 z"
         style="font-weight:bold;font-family:'Noto Sans';-inkscape-font-specification:'Noto Sans Bold';fill:#ffffff"
         id="path17605" />
      <path
         d="M 899.80492,426.98435 H 879.9383 V 325.65128 h 19.86662 z"
         style="font-weight:bold;font-family:'Noto Sans';-inkscape-font-specification:'Noto Sans Bold';fill:#ffffff"
         id="path17607" />
      <path
         d="m 940.47127,370.98449 q 0,4.13333 -0.4,8.26665 -0.26666,3.99999 -0.66666,8.13331 h 0.26666 q 2,-2.79999 4.13333,-5.59998 2.13332,-2.93333 4.53332,-5.46666 l 20.39995,-22.13327 h 22.39994 l -28.93326,31.59992 30.66659,41.19989 h -22.93328 l -20.93328,-29.46659 -8.53331,6.79998 v 22.66661 H 920.60465 V 325.65128 h 19.86662 z"
         style="font-weight:bold;font-family:'Noto Sans';-inkscape-font-specification:'Noto Sans Bold';fill:#ffffff"
         id="path17609" />
      <path
         d="m 1047.9375,448.05096 h -55.33316 v -9.06664 h 55.33316 z"
         style="font-weight:bold;font-family:'Noto Sans';-inkscape-font-specification:'Noto Sans Bold';fill:#ffffff"
         id="path17611" />
    </g>
    <rect
       style="display:inline;fill:none;fill-opacity:1;stroke-width:0.264583"
       id="rect965"
       width="36.398815"
       height="31.454714"
       x="49.390675"
       y="55.395729" />
    <rect
       style="display:inline;fill:none;fill-opacity:1;stroke-width:0.264583"
       id="rect967"
       width="11.848795"
       height="22.759912"
       x="78.629074"
       y="48.576294" />
    <rect
       style="display:inline;fill:none;fill-opacity:1;stroke-width:0.284315"
       id="rect961"
       width="52.168793"
       height="17.73057"
       x="34.217396"
       y="41.501114" />
    <rect
       style="display:inline;fill:none;fill-opacity:1;stroke-width:0.435338"
       id="rect953"
       width="21.49959"
       height="59.423241"
       x="29.562565"
       y="50.33757" />
    <rect
       style="display:inline;fill:none;fill-opacity:1;stroke-width:0.256163"
       id="rect957"
       width="37.677464"
       height="24.976248"
       x="51.94796"
       y="83.525978" />
    <path
       d="M 30.841212,107.9707 H 49.016323 V 54.1735 l -8.95985,-9.497829 -9.215261,9.521472 z m 21.4697,6.5913 H 27.546268 c -1.820333,0 -3.295649,-1.47602 -3.295649,-3.29565 V 52.863992 c 0,-0.85478 0.333022,-1.677102 0.927453,-2.290931 l 12.541601,-12.95895 c 0.626182,-0.64734 1.481667,-0.99236 2.389011,-1.004002 0.899936,0.006 1.758245,0.379593 2.375606,1.033992 L 54.708745,50.60269 c 0.576439,0.611012 0.897467,1.419931 0.897467,2.261302 v 58.402358 c 0,1.81963 -1.474968,3.29565 -3.295301,3.29565"
       style="display:inline;fill:#ffffff;fill-opacity:1;fill-rule:nonzero;stroke:none;stroke-width:0.352778"
       id="path915"
       inkscape:connector-curvature="0" />
    <path
       d="M 91.782871,114.54602 H 52.256583 c -1.819624,0 -3.295297,-1.47461 -3.295297,-3.29423 V 54.477841 c 0,-1.81962 1.475673,-3.295639 3.295297,-3.295639 1.820337,0 3.295654,1.476019 3.295654,3.295639 v 53.478999 h 32.93498 V 88.159304 l -8.32732,-8.414101 c -0.621947,-0.629002 -0.965552,-1.480262 -0.952146,-2.365022 0.012,-0.883348 0.379236,-1.725439 1.019175,-2.335738 l 8.260292,-7.883532 V 52.26875 c 0,-1.820329 1.475672,-3.295649 3.295653,-3.295649 1.82033,0 3.294937,1.47532 3.294937,3.295649 v 16.301861 c 0,0.900642 -0.367587,1.762481 -1.01952,2.38372 l -6.853418,6.540499 6.920089,6.991354 c 0.610662,0.617357 0.952849,1.450269 0.952849,2.31811 v 24.447496 c 0,1.81962 -1.474607,3.29423 -3.294937,3.29423"
       style="display:inline;fill:#ffffff;fill-opacity:1;fill-rule:nonzero;stroke:none;stroke-width:0.352778"
       id="path919"
       inkscape:connector-curvature="0" />
    <path
       d="m 91.784948,55.563593 c -0.95638,0 -1.905349,-0.413812 -2.557278,-1.214621 l -9.614965,-11.80888 -38.794972,0.049 h -0.0042 c -1.818569,0 -3.292122,-1.471443 -3.295297,-3.290711 -0.0025,-1.818929 1.471436,-3.29565 3.291064,-3.298479 l 40.362716,-0.0529 h 0.0056 c 0.988832,0 1.92828,0.44661 2.553758,1.215319 l 10.605911,13.024552 c 1.149699,1.412519 0.93768,3.487561 -0.473079,4.636911 -0.612069,0.49777 -1.349022,0.739779 -2.079272,0.739779"
       style="display:inline;fill:#ffffff;fill-opacity:1;fill-rule:nonzero;stroke:none;stroke-width:0.352778"
       id="path923"
       inkscape:connector-curvature="0" />
    <path
       d="M 81.455156,42.58916 H 40.813393 c -1.820333,0 -3.295297,-1.47496 -3.295297,-3.294937 v -6.303434 c 0,-1.819977 1.474964,-3.29565 3.295297,-3.29565 h 40.641763 c 1.819631,0 3.294242,1.475673 3.294242,3.29565 v 6.303434 c 0,1.819977 -1.474611,3.294937 -3.294242,3.294937"
       style="display:inline;fill:#ffffff;fill-opacity:1;fill-rule:nonzero;stroke:none;stroke-width:0.352778"
       id="path927"
       inkscape:connector-curvature="0" />
    <path
       style="display:inline;fill:none;stroke-width:0.117857"
       d="m 55.657202,80.088354 c 0,-27.743979 -3.53e-4,-27.811398 -0.241519,-28.455376 -0.249462,-0.666757 -0.39359,-0.828178 -6.508291,-7.289225 l -1.645207,-1.738394 h 16.154114 16.154117 l 4.425534,5.43451 4.425537,5.43451 v 6.814947 6.81495 l -3.918751,3.746468 c -2.155313,2.060558 -4.125055,3.956819 -4.377202,4.21391 -0.663748,0.676762 -0.941738,1.373081 -0.945173,2.367491 -0.0049,1.425092 0.0387,1.481798 4.899375,6.36917 l 4.341752,4.365599 v 9.86565 9.865646 H 72.039345 55.657202 Z"
       id="path518" />
    <path
       style="display:inline;fill:none;stroke-width:0.117857"
       d="m 30.910974,81.056253 0.0038,-26.841965 4.515213,-4.655358 c 2.483365,-2.560447 4.565043,-4.655357 4.625954,-4.655357 0.06091,0 2.084599,2.091259 4.497087,4.64724 l 4.386347,4.64724 v 26.850082 26.850075 h -9.016067 -9.016072 z"
       id="path557" />
    <text
       xml:space="preserve"
       transform="matrix(0.26458333,0,0,0.26458333,24.250619,29.695139)"
       id="text1785"
       style="font-style:normal;font-weight:normal;font-size:40px;line-height:1.25;font-family:sans-serif;white-space:pre;shape-inside:url(#rect1787);fill:#000000;fill-opacity:1;stroke:none" />
  </g>
</svg>
