<?xml version="1.0" encoding="UTF-8"?>
<svg width="247.56mm" height="84.867mm" version="1.1" viewBox="0 0 247.56 84.867" xmlns="http://www.w3.org/2000/svg">
  <g transform="translate(-24.251 -29.695)">
    <text transform="matrix(.28744 0 0 .28614 -24.649 -29.82)" fill="#ffffff" font-family="sans-serif" font-size="133.33px" style="line-height:1.25;shape-inside:url(#rect1079);white-space:pre" xml:space="preserve"><tspan x="485.27344" y="426.98435"><tspan font-family="'Noto Sans'" font-weight="bold">blumilk</tspan></tspan></text>
    <rect x="49.391" y="55.396" width="36.399" height="31.455" fill="none" stroke-width=".26458"/>
    <rect x="78.629" y="48.576" width="11.849" height="22.76" fill="none" stroke-width=".26458"/>
    <rect x="34.217" y="41.501" width="52.169" height="17.731" fill="none" stroke-width=".28432"/>
    <rect x="29.563" y="50.338" width="21.5" height="59.423" fill="none" stroke-width=".43534"/>
    <rect x="51.948" y="83.526" width="37.677" height="24.976" fill="none" stroke-width=".25616"/>
    <path d="m30.841 107.97h18.175v-53.797l-8.9598-9.4978-9.2153 9.5215zm21.47 6.5913h-24.765c-1.8203 0-3.2956-1.476-3.2956-3.2956v-58.402c0-0.85478 0.33302-1.6771 0.92745-2.2909l12.542-12.959c0.62618-0.64734 1.4817-0.99236 2.389-1.004 0.89994 6e-3 1.7582 0.37959 2.3756 1.034l12.224 12.959c0.57644 0.61101 0.89747 1.4199 0.89747 2.2613v58.402c0 1.8196-1.475 3.2956-3.2953 3.2956" fill="#fff"/>
    <path d="m91.783 114.55h-39.526c-1.8196 0-3.2953-1.4746-3.2953-3.2942v-56.774c0-1.8196 1.4757-3.2956 3.2953-3.2956 1.8203 0 3.2957 1.476 3.2957 3.2956v53.479h32.935v-19.798l-8.3273-8.4141c-0.62195-0.629-0.96555-1.4803-0.95215-2.365 0.012-0.88335 0.37924-1.7254 1.0192-2.3357l8.2603-7.8835v-14.892c0-1.8203 1.4757-3.2956 3.2957-3.2956 1.8203 0 3.2949 1.4753 3.2949 3.2956v16.302c0 0.90064-0.36759 1.7625-1.0195 2.3837l-6.8534 6.5405 6.9201 6.9914c0.61066 0.61736 0.95285 1.4503 0.95285 2.3181v24.447c0 1.8196-1.4746 3.2942-3.2949 3.2942" fill="#fff"/>
    <path d="m91.785 55.564c-0.95638 0-1.9053-0.41381-2.5573-1.2146l-9.615-11.809-38.795 0.049h-0.0042c-1.8186 0-3.2921-1.4714-3.2953-3.2907-0.0025-1.8189 1.4714-3.2956 3.2911-3.2985l40.363-0.0529h0.0056c0.98883 0 1.9283 0.44661 2.5538 1.2153l10.606 13.025c1.1497 1.4125 0.93768 3.4876-0.47308 4.6369-0.61207 0.49777-1.349 0.73978-2.0793 0.73978" fill="#fff"/>
    <path d="m81.455 42.589h-40.642c-1.8203 0-3.2953-1.475-3.2953-3.2949v-6.3034c0-1.82 1.475-3.2956 3.2953-3.2956h40.642c1.8196 0 3.2942 1.4757 3.2942 3.2956v6.3034c0 1.82-1.4746 3.2949-3.2942 3.2949" fill="#fff"/>
    <path d="m55.657 80.088c0-27.744-3.53e-4 -27.811-0.24152-28.455-0.24946-0.66676-0.39359-0.82818-6.5083-7.2892l-1.6452-1.7384h32.308l8.8511 10.869v13.63l-3.9188 3.7465c-2.1553 2.0606-4.1251 3.9568-4.3772 4.2139-0.66375 0.67676-0.94174 1.3731-0.94517 2.3675-0.0049 1.4251 0.0387 1.4818 4.8994 6.3692l4.3418 4.3656v19.731h-32.764z" fill="none" stroke-width=".11786"/>
    <path d="m30.911 81.056 0.0038-26.842 4.5152-4.6554c2.4834-2.5604 4.565-4.6554 4.626-4.6554 0.06091 0 2.0846 2.0913 4.4971 4.6472l4.3863 4.6472v53.7h-18.032z" fill="none" stroke-width=".11786"/>
    <rect x="262.33" y="89.057" width="11.698" height="3.2982" fill="#fff" stroke-width=".31054"/>
  </g>
</svg>
