<?xml version="1.0" encoding="UTF-8" standalone="no"?>
<!-- Created with Inkscape (http://www.inkscape.org/) -->

<svg
   xmlns:dc="http://purl.org/dc/elements/1.1/"
   xmlns:cc="http://creativecommons.org/ns#"
   xmlns:rdf="http://www.w3.org/1999/02/22-rdf-syntax-ns#"
   xmlns:svg="http://www.w3.org/2000/svg"
   xmlns="http://www.w3.org/2000/svg"
   xmlns:sodipodi="http://sodipodi.sourceforge.net/DTD/sodipodi-0.dtd"
   xmlns:inkscape="http://www.inkscape.org/namespaces/inkscape"
   version="1.1"
   id="svg869"
   xml:space="preserve"
   width="360"
   height="360"
   viewBox="0 0 359.99999 359.99999"
   sodipodi:docname="logo.svg"
   inkscape:export-filename="/home/krzysztof/Downloads/Logo 2.pdf.png"
   inkscape:export-xdpi="96"
   inkscape:export-ydpi="96"
   inkscape:version="0.92.3 (2405546, 2018-03-11)"><metadata
     id="metadata875"><rdf:RDF><cc:Work
         rdf:about=""><dc:format>image/svg+xml</dc:format><dc:type
           rdf:resource="http://purl.org/dc/dcmitype/StillImage" /><dc:title></dc:title></cc:Work></rdf:RDF></metadata><defs
     id="defs873"><clipPath
       clipPathUnits="userSpaceOnUse"
       id="clipPath885"><path
         d="M 0,595.28 H 841.89 V 0 H 0 Z"
         id="path883"
         inkscape:connector-curvature="0" /></clipPath></defs><sodipodi:namedview
     pagecolor="#ffffff"
     bordercolor="#666666"
     borderopacity="1"
     objecttolerance="10"
     gridtolerance="10"
     guidetolerance="10"
     inkscape:pageopacity="0"
     inkscape:pageshadow="2"
     inkscape:window-width="1920"
     inkscape:window-height="1050"
     id="namedview871"
     showgrid="false"
     fit-margin-top="0"
     fit-margin-left="0"
     fit-margin-right="0"
     fit-margin-bottom="0"
     inkscape:zoom="0.77596678"
     inkscape:cx="111.10522"
     inkscape:cy="122.06922"
     inkscape:window-x="1920"
     inkscape:window-y="0"
     inkscape:window-maximized="1"
     inkscape:current-layer="g877" /><g
     id="g877"
     inkscape:groupmode="layer"
     inkscape:label="Logo 2"
     transform="matrix(1.3333333,0,0,-1.3333333,-366.4341,748.19966)"><rect
       style="fill:#ffffff;fill-opacity:1;stroke-width:0.75"
       id="rect965"
       width="103.17775"
       height="89.162971"
       x="381.62784"
       y="-471.16714"
       transform="scale(1,-1)" /><rect
       style="fill:#ffffff;fill-opacity:1;stroke-width:0.75"
       id="rect967"
       width="33.587135"
       height="64.516289"
       x="464.50833"
       y="-490.49786"
       transform="scale(1,-1)" /><rect
       style="fill:#ffffff;fill-opacity:1;stroke-width:0.80593318"
       id="rect961"
       width="147.88005"
       height="50.259884"
       x="338.61697"
       y="-510.5535"
       transform="scale(1,-1)" /><rect
       style="fill:#ffffff;fill-opacity:1;stroke-width:1.23402977"
       id="rect953"
       width="60.943722"
       height="168.44383"
       x="325.42218"
       y="-485.50528"
       transform="scale(1,-1)" /><rect
       style="fill:#ffffff;fill-opacity:1;stroke-width:0.72613114"
       id="rect957"
       width="106.80226"
       height="70.798813"
       x="388.87683"
       y="-391.42789"
       transform="scale(1,-1)" /><path
       d="m 329.04669,322.13574 h 51.52 v 152.496 l -25.398,26.923 -26.122,-26.99001 z m 60.85899,-18.684 h -70.19899 c -5.16,0 -9.342,4.184 -9.342,9.342 v 165.55 c 0,2.423 0.944,4.754 2.629,6.49399 l 35.551,36.73401 c 1.775,1.835 4.2,2.81299 6.772,2.84599 2.551,-0.018 4.984,-1.07599 6.734,-2.93099 l 34.652,-36.73301 c 1.634,-1.73199 2.544,-4.02499 2.544,-6.40999 v -165.55 c 0,-5.158 -4.18101,-9.342 -9.34101,-9.342"
       style="fill:#527aba;fill-opacity:1;fill-rule:nonzero;stroke:none;stroke-width:0.99999994"
       id="path915"
       inkscape:connector-curvature="0" /><path
       d="M 501.79469,303.49704 H 389.75168 c -5.15799,0 -9.341,4.17999 -9.341,9.33799 v 160.93401 c 0,5.158 4.18301,9.34199 9.341,9.34199 5.16001,0 9.34201,-4.18399 9.34201,-9.34199 v -151.594 h 93.359 v 56.119 l -23.605,23.85099 c -1.763,1.783 -2.737,4.19601 -2.699,6.70401 0.034,2.50399 1.075,4.89099 2.889,6.621 l 23.415,22.347 v 42.214 c 0,5.15999 4.183,9.34199 9.342,9.34199 5.16,0 9.34,-4.182 9.34,-9.34199 v -46.21 c 0,-2.553 -1.042,-4.99601 -2.89,-6.75701 l -19.427,-18.54 19.616,-19.81799 c 1.731,-1.75001 2.701,-4.11101 2.701,-6.57101 v -69.3 c 0,-5.158 -4.18,-9.33799 -9.34,-9.33799"
       style="fill:#527aba;fill-opacity:1;fill-rule:nonzero;stroke:none;stroke-width:0.99999994"
       id="path919"
       inkscape:connector-curvature="0" /><path
       d="m 501.80059,470.69134 c -2.711,0 -5.401,1.173 -7.249,3.443 l -27.255,33.474 -109.97,-0.139 h -0.012 c -5.155,0 -9.332,4.171 -9.341,9.328 -0.007,5.156 4.171,9.342 9.329,9.35 l 114.414,0.15 h 0.016 c 2.803,0 5.466,-1.266 7.239,-3.445 l 30.064,-36.92 c 3.259,-4.004 2.658,-9.886 -1.341,-13.144 -1.735,-1.411 -3.824,-2.097 -5.894,-2.097"
       style="fill:#527aba;fill-opacity:1;fill-rule:nonzero;stroke:none;stroke-width:0.99999994"
       id="path923"
       inkscape:connector-curvature="0" /><path
       d="m 472.51929,507.46924 h -115.205 c -5.16,0 -9.341,4.181 -9.341,9.34 v 17.868 c 0,5.159 4.181,9.342 9.341,9.342 h 115.205 c 5.15801,0 9.338,-4.183 9.338,-9.342 v -17.868 c 0,-5.159 -4.17999,-9.34 -9.338,-9.34"
       style="fill:#527aba;fill-opacity:1;fill-rule:nonzero;stroke:none;stroke-width:0.99999994"
       id="path927"
       inkscape:connector-curvature="0" /></g></svg>
